<svg width="86" height="86" viewBox="0 0 86 86" fill="none" xmlns="http://www.w3.org/2000/svg">
<g clip-path="url(#clip0_316_30)">
<path d="M62.7409 18.7966L10.9433 0.5L0 32.7498L52.9833 50.5842L62.7409 18.7966Z" fill="url(#paint0_radial_316_30)"/>
<path fill-rule="evenodd" clip-rule="evenodd" d="M59.939 27.9239L59.4579 27.8521L7.66235 10.1689L5.78516 15.7004L58.1649 33.7036L59.939 27.9239Z" fill="white"/>
<path fill-rule="evenodd" clip-rule="evenodd" d="M34.7072 36.2135C34.9317 35.5403 35.2471 34.9288 35.5841 34.5138C35.9211 34.0987 36.252 33.914 36.5041 34.0003C36.6921 34.0646 36.8262 34.2764 36.8895 34.6088C36.9527 34.9413 36.9423 35.3795 36.8596 35.868C36.7768 36.3565 36.6254 36.8734 36.4245 37.3534C36.2236 37.8333 35.9823 38.2547 35.7309 38.5642C35.4796 38.8738 35.2296 39.0576 35.0126 39.0924C34.7956 39.1273 34.6213 39.0116 34.5117 38.76C34.4021 38.5084 34.3622 38.1321 34.397 37.6789C34.4318 37.2256 34.5397 36.7157 34.7072 36.2135Z" fill="white"/>
<path fill-rule="evenodd" clip-rule="evenodd" d="M41.5236 38.339C41.7481 37.6658 42.0636 37.0543 42.4006 36.6393C42.7375 36.2242 43.0685 36.0395 43.3205 36.1257C43.5085 36.1901 43.6426 36.4019 43.7059 36.7343C43.7691 37.0668 43.7587 37.505 43.676 37.9935C43.5932 38.482 43.4418 38.9989 43.2409 39.4789C43.04 39.9588 42.7987 40.3802 42.5473 40.6897C42.296 40.9993 42.046 41.1831 41.829 41.2179C41.612 41.2528 41.4377 41.1371 41.3281 40.8855C41.2185 40.6339 41.1786 40.2576 41.2134 39.8044C41.2482 39.3511 41.3562 38.8412 41.5236 38.339Z" fill="white"/>
<path fill-rule="evenodd" clip-rule="evenodd" d="M47.5646 40.3488C47.6758 40.0154 47.8104 39.6937 47.9609 39.402C48.1114 39.1103 48.2747 38.8544 48.4416 38.6489C48.6085 38.4433 48.7756 38.2922 48.9334 38.2041C49.0913 38.116 49.2368 38.0927 49.3616 38.1354C49.5495 38.1998 49.6836 38.4116 49.7469 38.744C49.8102 39.0765 49.7998 39.5147 49.717 40.0032C49.6342 40.4917 49.4828 41.0086 49.2819 41.4885C49.081 41.9685 48.8397 42.3898 48.5884 42.6994C48.337 43.0089 48.0871 43.1927 47.8701 43.2276C47.653 43.2624 47.4787 43.1467 47.3691 42.8951C47.2595 42.6435 47.2196 42.2673 47.2544 41.8141C47.2892 41.3608 47.3971 40.8509 47.5646 40.3488Z" fill="white"/>
<path d="M52.983 50.5842C59.4881 29.3925 62.7406 18.7966 62.7406 18.7966C51.0725 14.6751 45.2383 12.6143 45.2383 12.6143C51.8578 11.3899 59.6985 12.0571 68.7607 14.6162C74.424 16.8053 77.859 19.4696 79.0656 22.6093C80.2353 25.3566 82.2264 28.7449 85.0391 32.7738C70.3302 58.4759 59.0684 75.6788 51.2539 84.3824C45.8327 86.3871 36.9721 85.7867 24.6717 82.5808C18.6075 80.7094 13.9716 78.5225 10.7646 76.0202C9.51166 71.6479 10.4235 66.7039 13.5004 61.1888C16.7877 53.8104 20.4968 47.0942 24.6273 41.0396C43.5312 47.4027 52.983 50.5842 52.983 50.5842Z" fill="url(#paint1_linear_316_30)"/>
<path fill-rule="evenodd" clip-rule="evenodd" d="M62.1497 20.7227C57.8312 34.7911 55.6719 41.8253 55.6719 41.8253C63.2843 31.3324 67.8617 25.4667 69.4039 24.2275C64.5678 21.8909 62.1497 20.7227 62.1497 20.7227Z" fill="white"/>
<path fill-rule="evenodd" clip-rule="evenodd" d="M20.5737 68.7052C20.9008 67.8415 21.3311 67.0584 21.7699 66.5284C22.2087 65.9983 22.6202 65.7647 22.9137 65.8788C23.1327 65.9639 23.2743 66.2381 23.3208 66.6667C23.3674 67.0953 23.3166 67.6591 23.1751 68.2868C23.0335 68.9145 22.8075 69.5778 22.5255 70.193C22.2436 70.8082 21.9184 71.3475 21.5912 71.7428C21.2639 72.1381 20.9492 72.3716 20.6869 72.4138C20.4246 72.456 20.2265 72.305 20.1176 71.9798C20.0087 71.6547 19.9939 71.17 20.0751 70.5871C20.1563 70.0042 20.3298 69.3493 20.5737 68.7052Z" fill="white"/>
<path fill-rule="evenodd" clip-rule="evenodd" d="M26.7748 71.2464C27.1019 70.3827 27.5322 69.5997 27.971 69.0696C28.4098 68.5395 28.8213 68.3058 29.1149 68.4199C29.3338 68.505 29.4755 68.7792 29.522 69.2078C29.5685 69.6364 29.5178 70.2001 29.3763 70.8278C29.2347 71.4555 29.0086 72.1189 28.7267 72.734C28.4448 73.3492 28.1196 73.8886 27.7924 74.2839C27.4651 74.6792 27.1504 74.9127 26.8881 74.9549C26.6258 74.9971 26.4277 74.8461 26.3188 74.521C26.2099 74.1958 26.1951 73.7112 26.2762 73.1283C26.3574 72.5455 26.5309 71.8905 26.7748 71.2464Z" fill="white"/>
<path fill-rule="evenodd" clip-rule="evenodd" d="M32.7924 73.9264C32.9544 73.4987 33.1434 73.0863 33.3486 72.7128C33.5539 72.3392 33.7714 72.0119 33.9887 71.7494C34.206 71.487 34.4188 71.2945 34.6151 71.1831C34.8113 71.0716 34.9872 71.0433 35.1325 71.0998C35.3514 71.185 35.4931 71.4592 35.5396 71.8878C35.5861 72.3165 35.5354 72.8803 35.3938 73.5079C35.2522 74.1356 35.0262 74.799 34.7442 75.4141C34.4623 76.0293 34.1371 76.5686 33.8099 76.9639C33.4826 77.3591 33.168 77.5927 32.9057 77.6348C32.6434 77.677 32.4453 77.526 32.3363 77.2009C32.2274 76.8758 32.2127 76.3911 32.2938 75.8083C32.375 75.2254 32.5485 74.5705 32.7924 73.9264Z" fill="white"/>
<path fill-rule="evenodd" clip-rule="evenodd" d="M36.2866 65.0566C36.4485 64.6289 36.6375 64.2165 36.8428 63.843C37.048 63.4695 37.2655 63.1422 37.4828 62.8797C37.7001 62.6172 37.913 62.4248 38.1092 62.3133C38.3055 62.2018 38.4813 62.1736 38.6267 62.2301C38.8456 62.3152 38.9872 62.5894 39.0338 63.0181C39.0803 63.4467 39.0295 64.0105 38.8879 64.6382C38.7464 65.2659 38.5203 65.9292 38.2384 66.5444C37.9565 67.1595 37.6313 67.6988 37.304 68.0941C36.9768 68.4894 36.6621 68.7229 36.3998 68.7651C36.1375 68.8073 35.9394 68.6562 35.8305 68.3311C35.7216 68.006 35.7068 67.5214 35.788 66.9385C35.8691 66.3556 36.0427 65.7007 36.2866 65.0566Z" fill="white"/>
<path fill-rule="evenodd" clip-rule="evenodd" d="M30.3159 62.469C30.4779 62.0413 30.6669 61.6289 30.8721 61.2554C31.0774 60.8819 31.2948 60.5546 31.5121 60.2921C31.7294 60.0296 31.9423 59.8372 32.1386 59.7257C32.3348 59.6143 32.5107 59.5861 32.656 59.6426C32.8749 59.7277 33.0165 60.002 33.063 60.4306C33.1095 60.8593 33.0588 61.4231 32.9172 62.0507C32.7756 62.6784 32.5496 63.3418 32.2677 63.9569C31.9857 64.5721 31.6606 65.1114 31.3333 65.5066C31.006 65.9019 30.6914 66.1354 30.4291 66.1776C30.1668 66.2197 29.9687 66.0687 29.8598 65.7435C29.7509 65.4184 29.7361 64.9337 29.8173 64.3509C29.8985 63.768 30.072 63.1131 30.3159 62.469Z" fill="white"/>
<path fill-rule="evenodd" clip-rule="evenodd" d="M24.0229 59.789C24.35 58.9253 24.7803 58.1423 25.2191 57.6123C25.658 57.0822 26.0694 56.8485 26.3629 56.9626C26.5819 57.0477 26.7235 57.3219 26.7701 57.7506C26.8166 58.1792 26.7658 58.743 26.6243 59.3707C26.4827 59.9983 26.2567 60.6617 25.9747 61.2769C25.6928 61.892 25.3677 62.4314 25.0404 62.8267C24.7131 63.222 24.3984 63.4555 24.1362 63.4977C23.8739 63.5399 23.6757 63.3888 23.5668 63.0637C23.4579 62.7385 23.4431 62.2539 23.5243 61.671C23.6055 61.0881 23.779 60.4332 24.0229 59.789Z" fill="white"/>
<path fill-rule="evenodd" clip-rule="evenodd" d="M27.5796 51.0105C27.7415 50.5828 27.9305 50.1704 28.1358 49.7969C28.341 49.4234 28.5585 49.0961 28.7758 48.8336C28.9931 48.5712 29.206 48.3787 29.4022 48.2673C29.5985 48.1558 29.7743 48.1276 29.9197 48.1841C30.1386 48.2692 30.2802 48.5435 30.3267 48.9721C30.3732 49.4008 30.3225 49.9646 30.1809 50.5923C30.0393 51.2199 29.8133 51.8833 29.5313 52.4984C29.2494 53.1136 28.9242 53.6529 28.597 54.0482C28.2697 54.4434 27.955 54.6769 27.6928 54.7191C27.4305 54.7613 27.2324 54.6102 27.1235 54.2851C27.0146 53.9599 26.9998 53.4753 27.0809 52.8924C27.1621 52.3095 27.3357 51.6546 27.5796 51.0105Z" fill="white"/>
<path fill-rule="evenodd" clip-rule="evenodd" d="M33.7807 53.4596C33.9427 53.0319 34.1316 52.6195 34.3369 52.246C34.5421 51.8724 34.7596 51.5451 34.9769 51.2826C35.1942 51.0202 35.4071 50.8277 35.6034 50.7163C35.7996 50.6048 35.9754 50.5765 36.1208 50.633C36.3397 50.7182 36.4814 50.9924 36.5279 51.421C36.5744 51.8496 36.5237 52.4135 36.3821 53.0411C36.2405 53.6688 36.0145 54.3322 35.7325 54.9473C35.4506 55.5625 35.1254 56.1018 34.7982 56.4971C34.4709 56.8923 34.1563 57.1259 33.894 57.1681C33.6317 57.2102 33.4335 57.0592 33.3246 56.7341C33.2157 56.409 33.2009 55.9243 33.2821 55.3415C33.3633 54.7586 33.5368 54.1037 33.7807 53.4596Z" fill="white"/>
<path fill-rule="evenodd" clip-rule="evenodd" d="M39.7554 56.1391C39.9173 55.7114 40.1063 55.2991 40.3116 54.9255C40.5168 54.552 40.7343 54.2247 40.9516 53.9623C41.1689 53.6998 41.3818 53.5074 41.578 53.3959C41.7743 53.2845 41.9501 53.2562 42.0954 53.3128C42.3143 53.3979 42.456 53.6721 42.5025 54.1008C42.549 54.5294 42.4983 55.0932 42.3567 55.7209C42.2151 56.3486 41.989 57.0119 41.7071 57.6271C41.4252 58.2422 41.1 58.7815 40.7727 59.1768C40.4455 59.5721 40.1308 59.8056 39.8685 59.8477C39.6062 59.8899 39.4081 59.7389 39.2992 59.4137C39.1903 59.0886 39.1755 58.6039 39.2567 58.021C39.3379 57.4382 39.5114 56.7833 39.7554 56.1391Z" fill="white"/>
<path fill-rule="evenodd" clip-rule="evenodd" d="M49.0731 83.2327C49.6116 83.5135 50.1363 83.6518 50.6475 83.6476C48.8988 81.1562 48.4822 77.5877 49.3251 72.9284C52.2683 56.6639 66.8787 37.8897 76.7279 24.6469C77.1663 23.7274 77.2347 23.1267 76.933 22.8448C76.5473 22.7294 75.8632 23.3301 74.881 24.6466C64.3536 37.5952 49.5093 56.5726 47.6142 73.761C47.0555 78.829 47.6497 81.9974 49.0731 83.2327Z" fill="white"/>
</g>
<defs>
<radialGradient id="paint0_radial_316_30" cx="0" cy="0" r="1" gradientUnits="userSpaceOnUse" gradientTransform="translate(31.3704 25.5421) scale(62.7409 50.0842)">
<stop stop-color="#EDC962"/>
<stop offset="1" stop-color="#CFA247"/>
</radialGradient>
<linearGradient id="paint1_linear_316_30" x1="10.2207" y1="12.0199" x2="85.0391" y2="12.0199" gradientUnits="userSpaceOnUse">
<stop stop-color="#9C9C9C"/>
<stop offset="0.22" stop-color="#818181"/>
<stop offset="0.51" stop-color="#E1E1E1"/>
<stop offset="0.76" stop-color="#A5A5A5"/>
<stop offset="1" stop-color="#808080"/>
</linearGradient>
<clipPath id="clip0_316_30">
<rect width="85.0394" height="85.0394" fill="white" transform="translate(0 0.5)"/>
</clipPath>
</defs>
</svg>
