<svg width="87" height="79" viewBox="0 0 87 79" fill="none" xmlns="http://www.w3.org/2000/svg">
<g clip-path="url(#clip0_316_49)">
<path d="M12.1684 69.1426C12.8151 60.9817 8.7592 54.0433 0 48.3267C21.5551 48.5226 38.3793 40.4658 50.4729 24.1561C55.3771 31.2909 63.0895 34.7602 73.6098 34.5641C58.5863 55.9372 38.1057 67.4632 12.1684 69.1426Z" fill="url(#paint0_linear_316_49)"/>
<path fill-rule="evenodd" clip-rule="evenodd" d="M34.504 45.1016C36.1314 44.3281 37.7968 43.6768 39.4053 43.1849C41.0139 42.693 42.5339 42.3702 43.8787 42.2347C45.2235 42.0993 46.3667 42.154 47.2431 42.3956C48.1194 42.6372 48.7118 43.0611 48.9863 43.6431C49.3997 44.5195 49.077 45.7217 48.0591 47.0976C47.0412 48.4735 45.3738 49.9613 43.2677 51.3729C41.1615 52.7845 38.7113 54.0565 36.2269 55.028C33.7424 55.9995 31.3353 56.6269 29.31 56.8309C27.2846 57.0349 25.7319 56.8062 24.8483 56.1739C23.9647 55.5416 23.7898 54.534 24.3458 53.2785C24.9017 52.023 26.1636 50.576 27.9718 49.1205C29.7799 47.6651 32.0532 46.2665 34.504 45.1016Z" fill="white"/>
<path d="M61.3149 48.8646C48.7822 59.9719 33.6571 66.6739 15.9395 68.9709C19.9957 75.5655 22.0237 78.8628 22.0237 78.8628C66.4351 78.9211 87.8296 78.9497 86.2074 78.9486C85.2612 77.4131 84.7328 75.578 84.6225 73.4435C63.0277 73.501 52.2305 73.5296 52.2305 73.5296C52.259 72.4687 52.2732 71.9382 52.2732 71.9382C73.7822 71.9956 84.5367 72.0243 84.5367 72.0243C84.5367 70.2466 84.5367 69.3576 84.5367 69.3576C57.0863 69.4723 43.3611 69.5298 43.3611 69.5298C43.3896 68.5262 43.4039 68.0245 43.4039 68.0245C71.4827 67.9098 85.5221 67.8523 85.5221 67.8523C86.0364 66.304 86.2934 65.53 86.2934 65.53C80.4854 61.8694 76.6437 56.3214 74.7686 48.8862C65.7996 48.8719 61.3149 48.8646 61.3149 48.8646Z" fill="url(#paint1_linear_316_49)"/>
<path fill-rule="evenodd" clip-rule="evenodd" d="M28.2345 9.239C26.207 8.3589 24.0243 7.75519 21.686 7.42799C21.2711 7.19209 21.1372 6.87869 21.2843 6.48779C21.4028 6.04049 21.6932 5.83869 22.1552 5.88179C25.6466 6.12809 28.9641 7.23008 32.1075 9.18818C34.6558 11.008 36.3231 13.3074 37.1097 16.0866C37.7383 18.7153 37.9396 20.3993 37.7137 21.1387C37.5911 21.6594 37.323 21.8789 36.9089 21.7972C36.6775 21.6656 36.5304 21.4347 36.4679 21.1046C36.3827 19.7158 36.0793 18.269 35.558 16.7647C34.1694 13.2302 31.7284 10.7217 28.2345 9.239Z" fill="#E2BB58"/>
<path fill-rule="evenodd" clip-rule="evenodd" d="M32.9474 3.86281C30.9199 2.98271 28.7373 2.37911 26.3989 2.05191C25.9841 1.81601 25.85 1.50261 25.9972 1.11171C26.1156 0.664413 26.4061 0.46251 26.868 0.50571C30.3594 0.75201 33.6769 1.85401 36.8204 3.81211C39.3686 5.63191 41.0359 7.93131 41.8226 10.7105C42.4511 13.3391 42.6526 15.0232 42.4266 15.7626C42.3041 16.2832 42.0359 16.5028 41.6219 16.4211C41.3905 16.2895 41.2432 16.0585 41.1808 15.7285C41.0955 14.3397 40.7922 12.8928 40.2709 11.3885C38.8824 7.85401 36.4414 5.34561 32.9474 3.86281Z" fill="#E2BB58"/>
<path fill-rule="evenodd" clip-rule="evenodd" d="M17.6988 35.6442C17.3332 35.6169 16.98 35.5667 16.6411 35.4942C16.1004 35.379 15.5977 35.2078 15.1275 34.9779C14.6601 34.7446 14.2219 34.4585 13.8164 34.1134L14.9098 32.7649C15.3861 33.1779 15.9123 33.4908 16.4854 33.6973C16.8676 33.8351 17.2721 33.9267 17.6988 33.9727V29.9433C17.1557 29.8317 16.6953 29.7102 16.3178 29.5784C15.7916 29.3955 15.342 29.065 14.9686 28.5841C14.5953 28.1032 14.4103 27.4187 14.4103 26.5305V26.5215C14.4103 25.7457 14.5836 25.0817 14.9306 24.5301C15.2772 23.9813 15.7859 23.5592 16.4502 23.2731C16.8243 23.1109 17.2402 22.9938 17.6988 22.9228V20.9961H19.07V22.8432C19.4431 22.8568 19.8118 22.9051 20.1742 22.9868C20.6093 23.0843 21.0355 23.2318 21.4589 23.4235C21.8791 23.6154 22.2934 23.8601 22.702 24.1553L21.7027 25.5538C21.2265 25.2027 20.7533 24.9403 20.2771 24.7631C19.8755 24.6154 19.4736 24.5291 19.07 24.5064V28.4404L19.078 28.4424C19.1044 28.4484 19.1365 28.4544 19.172 28.4604C19.2073 28.4664 19.2366 28.4694 19.2661 28.475C20.0245 28.6315 20.6564 28.8172 21.1648 29.0297C21.6734 29.2422 22.0996 29.5873 22.4406 30.0625C22.7816 30.5374 22.9521 31.1866 22.9521 32.0126V32.0303C22.9521 32.7946 22.7728 33.4495 22.4111 33.9954C22.0468 34.5413 21.5234 34.9543 20.8386 35.2404C20.3263 35.4537 19.7377 35.5869 19.07 35.6407V37.5115H17.6988V35.6442ZM19.07 33.9672C19.6389 33.8994 20.103 33.7443 20.4624 33.5025C20.9619 33.1662 21.2119 32.6882 21.2119 32.0715V32.0625C21.2119 31.6258 21.1003 31.2778 20.8738 31.0211C20.6445 30.7644 20.3535 30.5756 19.9949 30.4515C19.7397 30.3634 19.4311 30.2796 19.07 30.2016V33.9672ZM17.6988 24.6327C17.3721 24.7182 17.092 24.8454 16.8588 25.014C16.3854 25.3562 16.1501 25.8431 16.1501 26.4715V26.4805C16.1501 26.9114 16.2709 27.2506 16.5147 27.4985C16.7588 27.7463 17.0645 27.9294 17.4288 28.0472C17.5115 28.074 17.6014 28.1011 17.6988 28.1284V24.6327Z" fill="white"/>
<path d="M17.4966 11.8231C19.368 11.8231 21.2211 12.1931 22.9501 12.912C24.679 13.6309 26.25 14.6845 27.5733 16.0128C28.8965 17.3411 29.9462 18.918 30.6624 20.6535C31.3785 22.389 31.7472 24.2491 31.7471 26.1276C31.7471 28.9568 30.9113 31.7224 29.3454 34.0747C27.7795 36.427 25.5539 38.2604 22.95 39.3431C20.346 40.4257 17.4808 40.709 14.7164 40.157C11.9521 39.6051 9.41289 38.2427 7.41993 36.2422C5.42697 34.2417 4.06976 31.6929 3.51991 28.9181C2.97006 26.1433 3.25229 23.2672 4.33088 20.6534C5.40947 18.0397 7.236 15.8056 9.57948 14.2338C11.923 12.6621 14.6781 11.8231 17.4966 11.8231Z" fill="url(#paint2_radial_316_49)"/>
<path fill-rule="evenodd" clip-rule="evenodd" d="M16.8121 32.518C16.4465 32.4907 16.0934 32.4405 15.7545 32.3679C15.2137 32.2527 14.7111 32.0816 14.2408 31.8517C13.7734 31.6184 13.3352 31.3323 12.9297 30.9872L14.0231 29.6386C14.4994 30.0517 15.0256 30.3645 15.5987 30.571C15.9809 30.7089 16.3854 30.8004 16.8121 30.8465V26.817C16.269 26.7055 15.8086 26.584 15.4311 26.4521C14.9049 26.2693 14.4553 25.9387 14.082 25.4579C13.7086 24.977 13.5236 24.2924 13.5236 23.4043V23.3953C13.5236 22.6195 13.6969 21.9555 14.0439 21.4039C14.3906 20.8551 14.8992 20.433 15.5635 20.1469C15.9376 19.9846 16.3535 19.8676 16.8121 19.7966V17.8699H18.1833V19.717C18.5564 19.7305 18.9251 19.7789 19.2876 19.8606C19.7226 19.9581 20.1488 20.1056 20.5722 20.2972C20.9924 20.4892 21.4067 20.7339 21.8153 21.0291L20.816 22.4276C20.3398 22.0764 19.8666 21.814 19.3904 21.6369C18.9888 21.4892 18.5869 21.4028 18.1833 21.3802V25.3142L18.1913 25.3162C18.2177 25.3222 18.2499 25.3282 18.2854 25.3342C18.3206 25.3402 18.3499 25.3432 18.3794 25.3487C19.1378 25.5053 19.7697 25.691 20.2781 25.9035C20.7867 26.116 21.2129 26.4611 21.5539 26.9363C21.8949 27.4112 22.0654 28.0603 22.0654 28.8863V28.904C22.0654 29.6684 21.8861 30.3233 21.5244 30.8692C21.1601 31.4151 20.6367 31.8281 19.9519 32.1142C19.4396 32.3275 18.851 32.4606 18.1833 32.5145V34.3852H16.8121V32.518ZM18.1833 30.841C18.7523 30.7731 19.2163 30.6181 19.5757 30.3762C20.0752 30.04 20.3253 29.5619 20.3253 28.9453V28.9363C20.3253 28.4997 20.2136 28.1517 19.9871 27.895C19.7578 27.6383 19.4669 27.4495 19.1083 27.3254C18.853 27.2372 18.5445 27.1535 18.1833 27.0755V30.841ZM16.8121 21.5064C16.4854 21.592 16.2053 21.7192 15.9721 21.8877C15.4987 22.23 15.2635 22.7169 15.2635 23.3452V23.3542C15.2635 23.7851 15.3842 24.1243 15.628 24.3721C15.8721 24.62 16.1778 24.8031 16.5421 24.9209C16.6248 24.9477 16.7147 24.9747 16.8121 25.002V21.5064Z" fill="white"/>
</g>
<defs>
<linearGradient id="paint0_linear_316_49" x1="6.0924e-05" y1="24.1561" x2="73.6098" y2="24.1561" gradientUnits="userSpaceOnUse">
<stop stop-color="#9C9C9C"/>
<stop offset="0.22" stop-color="#818181"/>
<stop offset="0.51" stop-color="#E1E1E1"/>
<stop offset="0.76" stop-color="#A5A5A5"/>
<stop offset="1" stop-color="#808080"/>
</linearGradient>
<linearGradient id="paint1_linear_316_49" x1="15.9395" y1="48.8646" x2="86.2934" y2="48.8646" gradientUnits="userSpaceOnUse">
<stop stop-color="#9C9C9C"/>
<stop offset="0.22" stop-color="#818181"/>
<stop offset="0.51" stop-color="#E1E1E1"/>
<stop offset="0.76" stop-color="#A5A5A5"/>
<stop offset="1" stop-color="#808080"/>
</linearGradient>
<radialGradient id="paint2_radial_316_49" cx="0" cy="0" r="1" gradientUnits="userSpaceOnUse" gradientTransform="translate(17.4966 26.1275) scale(28.501 28.6088)">
<stop stop-color="#EDCA63"/>
<stop offset="1" stop-color="#CFA247"/>
</radialGradient>
<clipPath id="clip0_316_49">
<rect width="86.2938" height="78.4486" fill="white" transform="translate(0 0.5)"/>
</clipPath>
</defs>
</svg>
