<svg width="92" height="58" viewBox="0 0 92 58" fill="none" xmlns="http://www.w3.org/2000/svg">
<g clip-path="url(#clip0_316_2)">
<path d="M14.5776 29.126C9.95089 29.3507 5.0915 28.8425 0 27.6006C11.7646 25.5456 13.4544 19.5969 13.3983 8.39029C13.3953 3.56659 15.6104 0.937 20.0443 0.5C42.861 0.5505 54.2696 0.576111 54.2696 0.576111C59.9472 0.309811 62.9685 2.52049 63.3327 7.20859C63.287 19.2277 63.265 25.2628 63.2663 25.314C63.4088 29.5706 61.5965 32.1242 57.8292 32.9747C32.5484 32.9747 19.9083 32.9747 19.9083 32.9747C17.4666 33.0217 15.6897 31.7391 14.5776 29.126Z" fill="url(#paint0_radial_316_2)"/>
<path d="M76.901 53.8245C81.5277 54.0492 86.3871 53.541 91.4786 52.2991C79.714 50.2441 78.0242 44.2954 78.0802 33.0888C78.0832 28.2651 75.8681 25.6355 71.4343 25.1985L63.2654 25.2165V25.314C63.4079 29.5706 61.5956 32.1242 57.8283 32.9747H28.1504C28.1936 44.283 28.2135 49.9627 28.2123 50.0125C28.0698 54.2691 29.8821 56.8227 33.6493 57.6732C58.9302 57.6732 71.5703 57.6732 71.5703 57.6732C74.0119 57.7202 75.7888 56.4376 76.901 53.8245Z" fill="url(#paint1_linear_316_2)"/>
<path d="M4.45312 43.3044V45.2101H25.7056V43.3044H4.45312Z" fill="url(#paint2_linear_316_2)"/>
<path d="M65.8242 15.7808V17.6865H87.0768V15.7808H65.8242Z" fill="url(#paint3_linear_316_2)"/>
<path fill-rule="evenodd" clip-rule="evenodd" d="M35.8422 21.3702C35.6713 20.8317 35.5877 20.2518 35.5877 19.638C35.5877 19.1593 35.6888 18.669 35.8947 18.1752C36.0968 17.685 36.6201 17.0002 37.4574 16.1325C38.3155 15.2644 38.8425 14.6096 39.0376 14.1719C39.2298 13.7303 39.3271 13.315 39.3271 12.9224C39.3271 12.2189 39.0971 11.6653 38.6329 11.2611C38.1691 10.8534 37.5797 10.6513 36.8642 10.6513C35.6189 10.6513 34.527 11.1791 33.5957 12.2301V9.98172C34.7329 9.22202 35.9155 8.84424 37.14 8.84424C38.3958 8.84424 39.4007 9.18462 40.1611 9.86172C40.9214 10.5429 41.3016 11.4708 41.3016 12.6454C41.3016 13.2106 41.1868 13.7829 40.9634 14.3629C40.7367 14.9428 40.154 15.7172 39.2052 16.6786C38.4902 17.4044 38.0085 17.9696 37.7644 18.3809C37.5202 18.7886 37.3946 19.2302 37.3946 19.7053C37.3946 20.2402 37.5169 20.7943 37.754 21.3702H35.8422ZM35.5877 24.9546C35.5877 24.5767 35.7166 24.2475 35.9749 23.9745C36.2328 23.701 36.5435 23.5627 36.9062 23.5627C37.2656 23.5627 37.5759 23.701 37.8376 23.9745C38.0959 24.2475 38.2248 24.5767 38.2248 24.9546C38.2248 25.3213 38.0959 25.6393 37.8413 25.9159C37.5863 26.1894 37.2902 26.3277 36.9587 26.3277C36.5469 26.3277 36.2191 26.1853 35.9645 25.9083C35.7133 25.6317 35.5877 25.3137 35.5877 24.9546Z" fill="white"/>
</g>
<defs>
<radialGradient id="paint0_radial_316_2" cx="0" cy="0" r="1" gradientUnits="userSpaceOnUse" gradientTransform="translate(31.6663 16.738) scale(63.3327 32.476)">
<stop stop-color="#EDC962"/>
<stop offset="1" stop-color="#CFA247"/>
</radialGradient>
<linearGradient id="paint1_linear_316_2" x1="28.1504" y1="25.1985" x2="91.4786" y2="25.1985" gradientUnits="userSpaceOnUse">
<stop stop-color="#9C9C9C"/>
<stop offset="0.22" stop-color="#818181"/>
<stop offset="0.51" stop-color="#E1E1E1"/>
<stop offset="0.76" stop-color="#A5A5A5"/>
<stop offset="1" stop-color="#808080"/>
</linearGradient>
<linearGradient id="paint2_linear_316_2" x1="4.45313" y1="43.3044" x2="25.7056" y2="43.3044" gradientUnits="userSpaceOnUse">
<stop stop-color="#9C9C9C"/>
<stop offset="0.22" stop-color="#818181"/>
<stop offset="0.51" stop-color="#E1E1E1"/>
<stop offset="0.76" stop-color="#A5A5A5"/>
<stop offset="1" stop-color="#808080"/>
</linearGradient>
<linearGradient id="paint3_linear_316_2" x1="65.8242" y1="15.7807" x2="87.0768" y2="15.7807" gradientUnits="userSpaceOnUse">
<stop stop-color="#9C9C9C"/>
<stop offset="0.22" stop-color="#818181"/>
<stop offset="0.51" stop-color="#E1E1E1"/>
<stop offset="0.76" stop-color="#A5A5A5"/>
<stop offset="1" stop-color="#808080"/>
</linearGradient>
<clipPath id="clip0_316_2">
<rect width="91.4795" height="57.1744" fill="white" transform="translate(0 0.5)"/>
</clipPath>
</defs>
</svg>
