<svg width="69" height="69" viewBox="0 0 69 69" fill="none" xmlns="http://www.w3.org/2000/svg">
<g clip-path="url(#clip0_318_2)">
<path d="M12.4224 22.0421C15.717 22.0422 18.8766 23.8368 21.2062 27.0314C23.5358 30.226 24.8446 34.5588 24.8446 39.0766C24.8446 42.4457 24.116 45.7392 22.7511 48.5405C21.3861 51.3418 19.446 53.5252 17.1761 54.8145C14.9062 56.1038 12.4085 56.4411 9.9988 55.7838C7.5891 55.1265 5.37566 53.5041 3.63838 51.1218C1.90109 48.7394 0.71799 45.7042 0.238684 42.3998C-0.240622 39.0954 0.0053975 35.6703 0.945627 32.5577C1.88586 29.445 3.47807 26.7846 5.52092 24.9129C7.56377 23.0411 9.9655 22.0421 12.4224 22.0421Z" fill="url(#paint0_radial_318_2)"/>
<path fill-rule="evenodd" clip-rule="evenodd" d="M15.0563 25.9011C17.5892 25.9011 20.0184 27.2809 21.8094 29.7369C23.6005 32.193 24.6067 35.5241 24.6067 38.9974C24.6067 41.5876 24.0465 44.1196 22.9971 46.2733C21.9477 48.427 20.4562 50.1056 18.711 51.0968C16.9659 52.088 15.0457 52.3474 13.1931 51.8421C11.3405 51.3367 9.63876 50.0895 8.30311 48.2579C6.96746 46.4264 6.05788 44.0928 5.68937 41.5524C5.32087 39.0119 5.51 36.3787 6.23284 33.9857C6.95569 31.5926 8.17979 29.5473 9.75035 28.1082C11.3209 26.6692 13.1674 25.9011 15.0563 25.9011Z" fill="white"/>
<path d="M15.0565 27.8694C17.2088 27.8694 19.2729 29.0418 20.7948 31.1287C22.3166 33.2156 23.1716 36.046 23.1716 38.9974C23.1716 41.1983 22.6957 43.3498 21.804 45.1797C20.9123 47.0097 19.6449 48.4361 18.162 49.2783C16.6792 50.1206 15.0475 50.3409 13.4733 49.9116C11.8992 49.4822 10.4532 48.4223 9.31827 46.8661C8.18335 45.3098 7.41046 43.327 7.09734 41.1683C6.78422 39.0097 6.94492 36.7723 7.55914 34.7389C8.17335 32.7055 9.21348 30.9675 10.548 29.7448C11.8825 28.522 13.4515 27.8694 15.0565 27.8694Z" fill="url(#paint1_linear_318_2)"/>
<path d="M9.53388 20.1647C24.9748 -2.01923 50.9178 7.64677 54.5699 30.0954C54.8412 31.5513 53.8353 32.2788 51.553 32.278C45.5322 34.7456 42.7565 39.9967 43.2259 48.0298C44.9602 54.6063 48.997 59.272 55.3353 62.0261C66.1058 59.4716 72.727 43.9876 64.5133 35.4475C63.5791 34.796 62.5169 34.2106 61.3268 33.6927C62.0945 24.8334 59.9416 17.1722 54.8674 10.7099C40.3308 -11.7209 6.36278 5.84457 9.53388 20.1647Z" fill="url(#paint2_radial_318_2)"/>
<path fill-rule="evenodd" clip-rule="evenodd" d="M58.1814 38.7932L56.9272 50.6806H55.64L54.4453 38.7932H58.1814ZM57.7998 52.7328V55.8564H54.7081V52.7328H57.7998Z" fill="white"/>
<path d="M38.662 41.8897C41.5718 33.6562 45.3603 30.0682 50.0275 31.1257C44.9371 33.7889 42.0289 38.3932 41.1424 46.2586C41.0075 49.859 43.6321 55.3409 49.8163 61.1277C47.9001 61.8972 45.6833 60.6983 43.1666 57.5328C38.5263 53.0814 37.0248 47.8668 38.662 41.8897Z" fill="url(#paint3_linear_318_2)"/>
<path d="M42.8262 58.928C41.6075 57.5297 40.9986 56.8301 40.9986 56.8301C37.5816 60.2216 34.2109 62.1332 30.8864 62.5649C27.1063 60.6828 22.6449 60.3831 17.5028 61.6666C16.5902 62.0525 16.2503 63.2723 16.4831 65.326C16.591 67.3183 17.5822 68.403 19.4561 68.5801C24.6397 68.6655 27.232 68.7082 27.232 68.7082C29.0295 68.7291 30.198 67.8875 30.7376 66.1832C35.2707 64.7677 39.3005 62.3491 42.8262 58.928Z" fill="url(#paint4_linear_318_2)"/>
</g>
<defs>
<radialGradient id="paint0_radial_318_2" cx="0" cy="0" r="1" gradientUnits="userSpaceOnUse" gradientTransform="translate(12.4223 39.0766) scale(24.8446 34.069)">
<stop stop-color="#EDC962"/>
<stop offset="1" stop-color="#CFA247"/>
</radialGradient>
<linearGradient id="paint1_linear_318_2" x1="6.94141" y1="27.8694" x2="23.1716" y2="27.8694" gradientUnits="userSpaceOnUse">
<stop stop-color="#9C9C9C"/>
<stop offset="0.22" stop-color="#818181"/>
<stop offset="0.51" stop-color="#E1E1E1"/>
<stop offset="0.76" stop-color="#A5A5A5"/>
<stop offset="1" stop-color="#808080"/>
</linearGradient>
<radialGradient id="paint2_radial_318_2" cx="0" cy="0" r="1" gradientUnits="userSpaceOnUse" gradientTransform="translate(38.7599 31.0131) scale(58.8674 62.0261)">
<stop stop-color="#EDC962"/>
<stop offset="1" stop-color="#CFA247"/>
</radialGradient>
<linearGradient id="paint3_linear_318_2" x1="38.0215" y1="30.9452" x2="50.0275" y2="30.9452" gradientUnits="userSpaceOnUse">
<stop stop-color="#9C9C9C"/>
<stop offset="0.22" stop-color="#818181"/>
<stop offset="0.51" stop-color="#E1E1E1"/>
<stop offset="0.76" stop-color="#A5A5A5"/>
<stop offset="1" stop-color="#808080"/>
</linearGradient>
<linearGradient id="paint4_linear_318_2" x1="16.4121" y1="56.8301" x2="42.8262" y2="56.8301" gradientUnits="userSpaceOnUse">
<stop stop-color="#9C9C9C"/>
<stop offset="0.22" stop-color="#818181"/>
<stop offset="0.51" stop-color="#E1E1E1"/>
<stop offset="0.76" stop-color="#A5A5A5"/>
<stop offset="1" stop-color="#808080"/>
</linearGradient>
<clipPath id="clip0_318_2">
<rect width="68.1938" height="68.7085" fill="white"/>
</clipPath>
</defs>
</svg>
