<svg width="65" height="92" viewBox="0 0 65 92" fill="none" xmlns="http://www.w3.org/2000/svg">
<g clip-path="url(#clip0_316_21)">
<path fill-rule="evenodd" clip-rule="evenodd" d="M32.8494 26.9023C32.4594 26.8721 32.0826 26.8164 31.721 26.736C31.144 26.6083 30.6077 26.4186 30.1059 26.1638C29.6072 25.9052 29.1397 25.5881 28.707 25.2056L29.8737 23.711C30.3818 24.1687 30.9433 24.5155 31.5548 24.7444C31.9626 24.8972 32.3941 24.9987 32.8494 25.0497V20.5836C32.27 20.46 31.7787 20.3253 31.3759 20.1792C30.8145 19.9765 30.3348 19.6102 29.9364 19.0772C29.5381 18.5442 29.3407 17.7855 29.3407 16.801V16.791C29.3407 15.9312 29.5256 15.1952 29.8958 14.5838C30.2657 13.9756 30.8084 13.5077 31.5172 13.1906C31.9164 13.0108 32.3601 12.8811 32.8494 12.8024V10.6669H34.3125V12.7142C34.7106 12.7291 35.1039 12.7828 35.4907 12.8733C35.9549 12.9814 36.4097 13.1448 36.8614 13.3573C37.3098 13.57 37.7518 13.8413 38.1878 14.1684L37.1215 15.7184C36.6134 15.3293 36.1086 15.0384 35.6005 14.8421C35.172 14.6784 34.7432 14.5827 34.3125 14.5576V18.9178L34.3205 18.9198C34.3487 18.9268 34.383 18.933 34.4209 18.9397C34.4585 18.9457 34.4897 18.9497 34.5212 18.9558C35.3304 19.1293 36.0047 19.3351 36.5471 19.5707C37.0898 19.8062 37.5446 20.1887 37.9084 20.7153C38.2722 21.2417 38.4541 21.9612 38.4541 22.8767V22.8963C38.4541 23.7435 38.2628 24.4694 37.8769 25.0745C37.4882 25.6795 36.9297 26.1373 36.199 26.4544C35.6525 26.6907 35.0244 26.8383 34.312 26.898V28.9715H32.8489L32.8494 26.9023ZM34.3125 25.0436C34.9196 24.9684 35.4147 24.7966 35.7981 24.5285C36.3311 24.1558 36.5979 23.6259 36.5979 22.9425V22.9325C36.5979 22.4485 36.4788 22.0628 36.2371 21.7783C35.9925 21.4938 35.682 21.2845 35.2994 21.147C35.0271 21.0493 34.6978 20.9564 34.3125 20.87V25.0436ZM32.8494 14.6976C32.5008 14.7924 32.202 14.9334 31.9532 15.1202C31.4481 15.4995 31.1971 16.0392 31.1971 16.7356V16.7456C31.1971 17.2233 31.3259 17.5992 31.586 17.8739C31.8465 18.1486 32.1727 18.3515 32.5614 18.4821C32.6496 18.5118 32.7455 18.5418 32.8494 18.572V14.6976Z" fill="white"/>
<path d="M33.1407 59.3683C37.1733 59.3683 41.0408 61.0387 43.8923 64.0119C46.7438 66.9852 48.3458 71.0178 48.3458 75.2227C48.3458 78.3584 47.454 81.4237 45.7832 84.0309C44.1125 86.6382 41.7378 88.6703 38.9594 89.8702C36.181 91.0702 33.1238 91.3842 30.1743 90.7724C27.2248 90.1607 24.5155 88.6507 22.389 86.4334C20.2626 84.2162 18.8144 81.3912 18.2277 78.3157C17.641 75.2403 17.9421 72.0525 19.093 69.1555C20.2438 66.2584 22.1927 63.7823 24.6932 62.0402C27.1936 60.2981 30.1334 59.3683 33.1407 59.3683Z" fill="url(#paint0_radial_316_21)"/>
<path fill-rule="evenodd" clip-rule="evenodd" d="M32.41 82.3056C32.0199 82.2754 31.6431 82.2197 31.2815 82.1393C30.7045 82.0116 30.1682 81.8219 29.6664 81.5671C29.1677 81.3085 28.7002 80.9914 28.2676 80.6089L29.4342 79.1143C29.9423 79.572 30.5038 79.9188 31.1154 80.1477C31.5231 80.3005 31.9547 80.4019 32.41 80.453V75.9869C31.8305 75.8633 31.3393 75.7286 30.9365 75.5825C30.375 75.3798 29.8954 75.0135 29.497 74.4805C29.0986 73.9475 28.9012 73.1888 28.9012 72.2043V72.1943C28.9012 71.3345 29.0862 70.5985 29.4563 69.9871C29.8262 69.3789 30.3689 68.911 31.0778 68.5939C31.477 68.4141 31.9207 68.2844 32.41 68.2057V66.0702H33.873V68.1174C34.2711 68.1324 34.6645 68.1861 35.0513 68.2766C35.5154 68.3847 35.9702 68.5481 36.4219 68.7606C36.8703 68.9733 37.3124 69.2446 37.7484 69.5717L36.6821 71.1217C36.174 70.7326 35.6691 70.4417 35.161 70.2454C34.7325 70.0817 34.3037 69.986 33.873 69.9609V74.3211L33.882 74.3231C33.9102 74.3301 33.9445 74.3363 33.9823 74.3429C34.0199 74.3489 34.0512 74.3529 34.0827 74.3591C34.8919 74.5326 35.5661 74.7384 36.1086 74.974C36.6512 75.2095 37.106 75.592 37.4698 76.1186C37.8336 76.645 38.0156 77.3645 38.0156 78.28V78.2996C38.0156 79.1468 37.8242 79.8727 37.4383 80.4777C37.0496 81.0828 36.4912 81.5406 35.7605 81.8577C35.2139 82.094 34.5858 82.2416 33.8734 82.3013V84.3748H32.4104L32.41 82.3056ZM33.873 80.4469C34.4801 80.3717 34.9752 80.1999 35.3587 79.9318C35.8917 79.5591 36.1585 79.0292 36.1585 78.3458V78.3358C36.1585 77.8518 36.0393 77.4661 35.7977 77.1816C35.553 76.8971 35.2426 76.6878 34.86 76.5503C34.5876 76.4526 34.2584 76.3597 33.873 76.2733V80.4469ZM32.41 70.1009C32.0614 70.1957 31.7625 70.3367 31.5137 70.5235C31.0086 70.9028 30.7576 71.4425 30.7576 72.1389V72.1489C30.7576 72.6266 30.8864 73.0025 31.1466 73.2772C31.407 73.5519 31.7332 73.7548 32.1219 73.8854C32.2101 73.9151 32.3061 73.9451 32.41 73.9753V70.1009Z" fill="white"/>
<path d="M11.0549 35.5743C11.5752 35.6086 11.9589 35.4487 12.206 35.0947C12.206 35.0947 12.0803 31.599 11.8289 24.6077C11.8289 24.6077 8.8882 25.7876 3.0071 28.147C2.6432 28.2994 2.63281 28.7584 2.97601 29.5234C3.07961 30.0059 3.64171 30.0714 4.66271 29.72C6.27621 29.1664 7.08291 28.8898 7.08291 28.8898C7.73361 28.816 7.83481 29.0163 7.38671 29.4906C-4.31819 40.7074 -1.42409 56.5399 11.2225 65.8779C12.1054 66.4832 12.7759 66.5197 13.2341 65.9873C13.7997 65.2125 13.7087 64.5279 12.9617 63.9336C4.55551 58.3211 -0.584781 47.7845 4.32902 37.8465C5.46332 35.5523 7.15051 32.8637 9.60941 29.8933C9.99691 29.3059 10.1713 29.6775 10.133 31.0079C10.1611 33.2072 10.1751 34.307 10.1751 34.307C10.1966 35.0719 10.4898 35.4944 11.0549 35.5743Z" fill="url(#paint1_linear_316_21)"/>
<path d="M53.6423 54.8701C53.122 54.8358 52.7383 54.9957 52.4912 55.3497C52.4912 55.3497 52.6169 58.8454 52.8683 65.8367C52.8683 65.8367 55.809 64.6568 61.6901 62.2974C62.054 62.1449 62.0644 61.686 61.7212 60.921C61.6176 60.4385 61.0555 60.373 60.0345 60.7244C58.421 61.278 57.6143 61.5546 57.6143 61.5546C56.9636 61.6284 56.8624 61.4281 57.3105 60.9538C69.0154 49.737 66.1213 33.9045 53.4747 24.5665C52.5918 23.9611 51.9213 23.9247 51.4631 24.4571C50.8975 25.2319 50.9885 25.9165 51.7355 26.5108C60.1417 32.1233 65.282 42.6599 60.3682 52.5979C59.2339 54.8921 57.5467 57.5807 55.0877 60.5511C54.7003 61.1385 54.5259 60.7669 54.5642 59.4365C54.5361 57.2372 54.5221 56.1374 54.5221 56.1374C54.5006 55.3725 54.2074 54.9499 53.6423 54.8701Z" fill="url(#paint2_linear_316_21)"/>
<path d="M32.6348 0.5C34.6316 0.5 36.6088 0.910084 38.4536 1.70685C40.2983 2.50361 41.9745 3.67145 43.3865 5.14368C44.7984 6.6159 45.9184 8.36369 46.6825 10.2872C47.4466 12.2108 47.8399 14.2725 47.8399 16.3545C47.8399 19.4902 46.9481 22.5555 45.2773 25.1627C43.6066 27.7699 41.2318 29.802 38.4535 31.002C35.6751 32.202 32.6179 32.5159 29.6684 31.9041C26.7189 31.2924 24.0096 29.7824 21.8831 27.5651C19.7567 25.3478 18.3085 22.5229 17.7218 19.4474C17.1352 16.372 17.4363 13.1842 18.5871 10.2872C19.738 7.39015 21.6868 4.91404 24.1873 3.17194C26.6878 1.42984 29.6275 0.5 32.6348 0.5Z" fill="url(#paint3_radial_316_21)"/>
<path fill-rule="evenodd" clip-rule="evenodd" d="M31.9023 23.4374C31.5122 23.4071 31.1354 23.3514 30.7738 23.271C30.1968 23.1433 29.6605 22.9536 29.1587 22.6988C28.66 22.4403 28.1925 22.1232 27.7598 21.7406L28.9265 20.246C29.4346 20.7038 29.9961 21.0505 30.6076 21.2794C31.0154 21.4322 31.4469 21.5337 31.9023 21.5847V17.1186C31.3228 16.995 30.8315 16.8604 30.4287 16.7142C29.8673 16.5116 29.3876 16.1452 28.9892 15.6122C28.5909 15.0792 28.3935 14.3205 28.3935 13.3361V13.3261C28.3935 12.4662 28.5784 11.7302 28.9486 11.1188C29.3185 10.5106 29.8612 10.0428 30.57 9.72569C30.9692 9.54579 31.4129 9.4161 31.9023 9.3374V7.2019H33.3653V9.24919C33.7634 9.26419 34.1568 9.31779 34.5435 9.40829C35.0077 9.51639 35.4625 9.6798 35.9142 9.8923C36.3626 10.105 36.8047 10.3763 37.2406 10.7035L36.1743 12.2534C35.6662 11.8643 35.1614 11.5734 34.6533 11.3771C34.2248 11.2134 33.796 11.1177 33.3653 11.0926V15.4529L33.3733 15.4549C33.4015 15.4619 33.4358 15.4681 33.4737 15.4748C33.5113 15.4808 33.5425 15.4848 33.574 15.4909C34.3832 15.6644 35.0575 15.8703 35.5999 16.1058C36.1426 16.3413 36.5974 16.7238 36.9612 17.2505C37.325 17.7768 37.5069 18.4963 37.5069 19.4119V19.4315C37.5069 20.2787 37.3156 21.0045 36.9297 21.6096C36.541 22.2146 35.9825 22.6724 35.2519 22.9895C34.7053 23.2259 34.0772 23.3734 33.3648 23.4331V25.5066H31.9018L31.9023 23.4374ZM33.3653 21.5786C33.9724 21.5034 34.4675 21.3316 34.8509 21.0635C35.384 20.6908 35.6507 20.161 35.6507 19.4775V19.4675C35.6507 18.9835 35.5316 18.5978 35.29 18.3133C35.0453 18.0288 34.7348 17.8195 34.3522 17.682C34.0799 17.5843 33.7506 17.4915 33.3653 17.405V21.5786ZM31.9023 11.2326C31.5537 11.3275 31.2548 11.4684 31.006 11.6552C30.5009 12.0346 30.2499 12.5742 30.2499 13.2706V13.2806C30.2499 13.7583 30.3787 14.1342 30.6389 14.4089C30.8993 14.6836 31.2255 14.8865 31.6142 15.0171C31.7024 15.0468 31.7983 15.0768 31.9023 15.1071V11.2326Z" fill="white"/>
</g>
<defs>
<radialGradient id="paint0_radial_316_21" cx="0" cy="0" r="1" gradientUnits="userSpaceOnUse" gradientTransform="translate(33.1407 75.2227) scale(30.4102 31.7088)">
<stop stop-color="#EDCA63"/>
<stop offset="1" stop-color="#CFA247"/>
</radialGradient>
<linearGradient id="paint1_linear_316_21" x1="-2.44594e-06" y1="24.6077" x2="13.5996" y2="24.6077" gradientUnits="userSpaceOnUse">
<stop stop-color="#9C9C9C"/>
<stop offset="0.22" stop-color="#818181"/>
<stop offset="0.51" stop-color="#E1E1E1"/>
<stop offset="0.76" stop-color="#A5A5A5"/>
<stop offset="1" stop-color="#808080"/>
</linearGradient>
<linearGradient id="paint2_linear_316_21" x1="51.0977" y1="24.0833" x2="64.6972" y2="24.0833" gradientUnits="userSpaceOnUse">
<stop stop-color="#9C9C9C"/>
<stop offset="0.22" stop-color="#818181"/>
<stop offset="0.51" stop-color="#E1E1E1"/>
<stop offset="0.76" stop-color="#A5A5A5"/>
<stop offset="1" stop-color="#808080"/>
</linearGradient>
<radialGradient id="paint3_radial_316_21" cx="0" cy="0" r="1" gradientUnits="userSpaceOnUse" gradientTransform="translate(32.6348 16.3544) scale(30.4102 31.7088)">
<stop stop-color="#EDCA63"/>
<stop offset="1" stop-color="#CFA247"/>
</radialGradient>
<clipPath id="clip0_316_21">
<rect width="64.6976" height="90.5771" fill="white" transform="translate(0 0.5)"/>
</clipPath>
</defs>
</svg>
