<svg width="40" height="40" viewBox="0 0 40 40" fill="none" xmlns="http://www.w3.org/2000/svg">
<path d="M33.75 4.375H13.75C13.2527 4.375 12.7758 4.57254 12.4242 4.92417C12.0725 5.27581 11.875 5.75272 11.875 6.25V11.875H6.25C5.75272 11.875 5.27581 12.0725 4.92417 12.4242C4.57254 12.7758 4.375 13.2527 4.375 13.75V33.75C4.375 34.2473 4.57254 34.7242 4.92417 35.0758C5.27581 35.4275 5.75272 35.625 6.25 35.625H26.25C26.7473 35.625 27.2242 35.4275 27.5758 35.0758C27.9275 34.7242 28.125 34.2473 28.125 33.75V28.125H33.75C34.2473 28.125 34.7242 27.9275 35.0758 27.5758C35.4275 27.2242 35.625 26.7473 35.625 26.25V6.25C35.625 5.75272 35.4275 5.27581 35.0758 4.92417C34.7242 4.57254 34.2473 4.375 33.75 4.375ZM24.375 31.875H8.125V15.625H24.375V31.875ZM31.875 24.375H28.125V13.75C28.125 13.2527 27.9275 12.7758 27.5758 12.4242C27.2242 12.0725 26.7473 11.875 26.25 11.875H15.625V8.125H31.875V24.375Z" />
</svg>
