<svg width="22" height="23" viewBox="0 0 22 23" fill="none" xmlns="http://www.w3.org/2000/svg">
<path d="M0.484254 9.6176C0.794415 9.86245 1.21503 10 1.6536 10C2.09216 10 2.51278 9.86245 2.82294 9.6176L11.01 3.15257L19.197 9.6176C19.509 9.85551 19.9268 9.98716 20.3604 9.98418C20.7941 9.9812 21.2089 9.84385 21.5156 9.60169C21.8222 9.35954 21.9962 9.03196 21.9999 8.68951C22.0037 8.34706 21.837 8.01715 21.5357 7.77082L12.1793 0.382399C11.8692 0.137548 11.4486 0 11.01 0C10.5714 0 10.1508 0.137548 9.84064 0.382399L0.484254 7.77082C0.174186 8.01575 0 8.34789 0 8.69421C0 9.04053 0.174186 9.37268 0.484254 9.6176Z" fill="#41A8DC"/>
<path d="M0.484254 13.3824C0.794415 13.1375 1.21503 13 1.6536 13C2.09216 13 2.51278 13.1375 2.82294 13.3824L11.01 19.8474L19.197 13.3824C19.509 13.1445 19.9268 13.0128 20.3604 13.0158C20.7941 13.0188 21.2089 13.1562 21.5156 13.3983C21.8222 13.6405 21.9962 13.968 21.9999 14.3105C22.0037 14.6529 21.837 14.9829 21.5357 15.2292L12.1793 22.6176C11.8692 22.8625 11.4486 23 11.01 23C10.5714 23 10.1508 22.8625 9.84064 22.6176L0.484254 15.2292C0.174186 14.9843 0 14.6521 0 14.3058C0 13.9595 0.174186 13.6273 0.484254 13.3824Z" fill="#41A8DC"/>
</svg>
