<svg width="32" height="32" viewBox="0 0 32 32" fill="none" xmlns="http://www.w3.org/2000/svg">
<path d="M15.3334 4C16.6441 4.0001 17.9188 4.42921 18.9627 5.22179C20.0066 6.01436 20.7625 7.12685 21.1147 8.38933L21.1841 8.66267L23.6774 8.04C23.8597 7.99464 24.0494 7.98829 24.2343 8.02136C24.4192 8.05444 24.595 8.1262 24.7502 8.23194C24.9054 8.33767 25.0365 8.47501 25.1349 8.63494C25.2334 8.79487 25.2969 8.9738 25.3214 9.16L25.3334 9.33333V11.7467C26.0851 12.4674 26.7011 13.3173 27.1521 14.256L27.3361 14.6667H28.0001C28.3267 14.6667 28.6419 14.7866 28.8859 15.0036C29.13 15.2206 29.2859 15.5197 29.3241 15.844L29.3334 16V20C29.3334 20.2195 29.2793 20.4355 29.1758 20.629C29.0723 20.8226 28.9226 20.9875 28.7401 21.1093L28.5961 21.192L27.0387 21.972C26.4012 23.2055 25.4777 24.2684 24.3454 25.072L24.0001 25.304V26.6667C24 26.9932 23.8801 27.3084 23.6631 27.5525C23.4461 27.7965 23.1471 27.9525 22.8227 27.9907L22.6667 28H18.6667C18.3402 28 18.025 27.8801 17.7809 27.663C17.5369 27.446 17.381 27.147 17.3427 26.8227L17.3334 26.6667H16.0001C16 26.9932 15.8801 27.3084 15.6631 27.5525C15.4461 27.7965 15.1471 27.9525 14.8227 27.9907L14.6667 28H10.6667C10.3402 28 10.025 27.8801 9.78092 27.663C9.53687 27.446 9.38096 27.147 9.34275 26.8227L9.33341 26.6667V25.304C8.37019 24.6882 7.53815 23.8881 6.88511 22.9497C6.23206 22.0113 5.77089 20.9532 5.52808 19.836C4.74185 19.602 4.0465 19.1321 3.53615 18.4899C3.0258 17.8476 2.7251 17.0641 2.67475 16.2453L2.66675 16V15.3333C2.66712 14.9935 2.79725 14.6666 3.03055 14.4195C3.26384 14.1724 3.58269 14.0237 3.92194 14.0038C4.2612 13.9839 4.59525 14.0942 4.85586 14.3124C5.11646 14.5305 5.28394 14.8399 5.32408 15.1773L5.33341 15.3333V16C5.33341 16.1973 5.37608 16.3853 5.45341 16.5533C5.65693 15.353 6.11092 14.2089 6.78585 13.1956C7.46078 12.1822 8.34152 11.3224 9.37075 10.672C9.27614 9.83265 9.35983 8.98277 9.61633 8.17799C9.87283 7.37321 10.2964 6.63166 10.8592 6.00185C11.4221 5.37203 12.1116 4.86816 12.8826 4.52319C13.6536 4.17823 14.4887 3.99994 15.3334 4ZM22.6667 11.04L18.9894 11.96L18.8294 11.9907L18.6667 12H14.0001C12.6519 11.9991 11.3427 12.4523 10.2836 13.2865C9.22451 14.1207 8.47721 15.2872 8.1622 16.5981C7.8472 17.9089 7.98285 19.2877 8.54728 20.512C9.11172 21.7363 10.072 22.7349 11.2734 23.3467C11.467 23.4456 11.6334 23.5904 11.7582 23.7684C11.883 23.9465 11.9624 24.1523 11.9894 24.368L12.0001 24.5333V25.3333H13.3334C13.3335 25.0068 13.4534 24.6916 13.6704 24.4475C13.8874 24.2035 14.1864 24.0475 14.5107 24.0093L14.6667 24H18.6667C18.9933 24 19.3085 24.1199 19.5526 24.337C19.7966 24.554 19.9525 24.853 19.9907 25.1773L20.0001 25.3333H21.3334V24.5333C21.3335 24.2878 21.4014 24.0471 21.5297 23.8377C21.6579 23.6283 21.8414 23.4584 22.0601 23.3467C23.2836 22.7203 24.2564 21.6948 24.8174 20.44C24.9174 20.2155 25.0775 20.0231 25.2801 19.884L25.4387 19.7907L26.6667 19.176V17.3333H26.3907C26.1004 17.3332 25.8181 17.2384 25.5866 17.0632C25.355 16.888 25.187 16.642 25.1081 16.3627C24.7745 15.1897 24.0918 14.1461 23.1507 13.3707C22.8896 13.155 22.7204 12.848 22.6774 12.512L22.6667 12.3427V11.04ZM21.3334 14.6667C21.687 14.6667 22.0262 14.8071 22.2762 15.0572C22.5263 15.3072 22.6667 15.6464 22.6667 16C22.6667 16.3536 22.5263 16.6928 22.2762 16.9428C22.0262 17.1929 21.687 17.3333 21.3334 17.3333C20.9798 17.3333 20.6407 17.1929 20.3906 16.9428C20.1406 16.6928 20.0001 16.3536 20.0001 16C20.0001 15.6464 20.1406 15.3072 20.3906 15.0572C20.6407 14.8071 20.9798 14.6667 21.3334 14.6667ZM15.3334 6.66667C14.5258 6.66666 13.7457 6.95987 13.138 7.49179C12.5303 8.02371 12.1363 8.75817 12.0294 9.55867C12.6756 9.40862 13.3367 9.33301 14.0001 9.33333H18.5027L18.5961 9.31067C18.438 8.56261 18.0275 7.89165 17.4335 7.41027C16.8394 6.92889 16.098 6.66635 15.3334 6.66667Z" fill="#CFA247"/>
</svg>
