<svg width="32" height="29" viewBox="0 0 32 29" fill="none" xmlns="http://www.w3.org/2000/svg">
<g clip-path="url(#clip0_1123_1096)">
<path d="M4.44444 5.33333C5.15169 5.33333 5.82997 5.05238 6.33006 4.55228C6.83016 4.05219 7.11111 3.37391 7.11111 2.66667C7.11111 1.95942 6.83016 1.28115 6.33006 0.781049C5.82997 0.280952 5.15169 0 4.44444 0C3.7372 0 3.05892 0.280952 2.55883 0.781049C2.05873 1.28115 1.77778 1.95942 1.77778 2.66667C1.77778 3.37391 2.05873 4.05219 2.55883 4.55228C3.05892 5.05238 3.7372 5.33333 4.44444 5.33333ZM3.55556 7.11111C1.59444 7.11111 0 8.70556 0 10.6667V17.7778C0 18.7611 0.794444 19.5556 1.77778 19.5556C2.32222 19.5556 2.80556 19.3111 3.13333 18.9333L4.46667 26.9611C4.62778 27.9278 5.54444 28.5833 6.51111 28.4222C7.47778 28.2611 8.13333 27.3444 7.97222 26.3778L6.83889 19.5556H7.71111L9.37778 27.05C9.58889 28.0111 10.5389 28.6111 11.5 28.4C12.4611 28.1889 13.0611 27.2389 12.85 26.2778L9.66667 11.9444L16.1278 14.9333C16.1556 14.95 16.1889 14.9611 16.2167 14.9722C16.6944 15.1722 17.2167 15.1444 17.6556 14.9333C17.8444 14.8444 18.0222 14.7167 18.1722 14.5611C18.3444 14.3833 18.4778 14.1722 18.5667 13.9278C18.5722 13.9111 18.5778 13.8889 18.5833 13.8722L18.7222 13.4556C19.0389 12.5056 19.7389 11.7389 20.65 11.3333L21.0944 11.1389C21.15 11.1167 21.2 11.0944 21.2556 11.0722L20.3167 14.6C20.0056 15.7722 20.3111 17.0222 21.1333 17.9167L25.0611 22.2L26.2833 27.0944C26.5222 28.0444 27.4889 28.6278 28.4389 28.3889C29.3889 28.15 29.9722 27.1833 29.7333 26.2333L28.4556 21.1167C28.35 20.6833 28.1333 20.2889 27.8333 19.9611L25.0833 16.9611L26.1556 13.3222L26.6889 14.6C26.9333 15.1889 27.3833 15.6722 27.9556 15.9611L29.4389 16.7C30.3167 17.1389 31.3833 16.7833 31.8222 15.9056C32.2611 15.0278 31.9056 13.9611 31.0278 13.5222L29.8333 12.9278L28.9833 10.8833C28.0278 8.6 25.7944 7.11111 23.3167 7.11111C22.05 7.11111 20.8 7.37778 19.6444 7.88889L19.2 8.08333C17.8548 8.68411 16.7277 9.68517 15.9722 10.95L8.73889 7.60556C8.03889 7.27778 7.27222 7.11111 6.5 7.11111H3.55556ZM25.7778 5.33333C26.485 5.33333 27.1633 5.05238 27.6634 4.55228C28.1635 4.05219 28.4444 3.37391 28.4444 2.66667C28.4444 1.95942 28.1635 1.28115 27.6634 0.781049C27.1633 0.280952 26.485 0 25.7778 0C25.0705 0 24.3923 0.280952 23.8922 0.781049C23.3921 1.28115 23.1111 1.95942 23.1111 2.66667C23.1111 3.37391 23.3921 4.05219 23.8922 4.55228C24.3923 5.05238 25.0705 5.33333 25.7778 5.33333ZM19.4278 18.6444L18.0389 22.1111L14.7389 25.4111C14.0444 26.1056 14.0444 27.2333 14.7389 27.9278C15.4333 28.6222 16.5611 28.6222 17.2556 27.9278L20.6833 24.5C20.9389 24.2444 21.1389 23.9389 21.2722 23.6056L22.0778 21.5944L19.8167 19.1278C19.6778 18.9778 19.55 18.8167 19.4278 18.65V18.6444Z" fill="#CFA247"/>
</g>
<defs>
<clipPath id="clip0_1123_1096">
<rect width="32" height="28.4444" fill="white"/>
</clipPath>
</defs>
</svg>
