<svg width="44" height="44" viewBox="0 0 44 44" fill="none" xmlns="http://www.w3.org/2000/svg">
<rect width="44" height="44" rx="12" fill="#343434"/>
<g clip-path="url(#clip0_424_176)">
<path d="M19.5245 29.1423C19.8495 29.4676 20.2355 29.7256 20.6603 29.9016C21.0851 30.0777 21.5404 30.1683 22.0002 30.1683C22.46 30.1683 22.9153 30.0777 23.3401 29.9016C23.7649 29.7256 24.1508 29.4676 24.4758 29.1423L28.222 25.3962C28.4229 25.174 28.5306 24.8832 28.5229 24.5838C28.5152 24.2844 28.3927 23.9994 28.1807 23.7879C27.9687 23.5763 27.6835 23.4544 27.3841 23.4474C27.0847 23.4403 26.7941 23.5487 26.5723 23.75L23.1587 27.1648L23.1668 9.16667C23.1668 8.85725 23.0439 8.5605 22.8251 8.34171C22.6063 8.12292 22.3096 8 22.0002 8V8C21.6908 8 21.394 8.12292 21.1752 8.34171C20.9564 8.5605 20.8335 8.85725 20.8335 9.16667L20.823 27.1427L17.428 23.75C17.2091 23.5312 16.9123 23.4084 16.6028 23.4085C16.2933 23.4086 15.9965 23.5317 15.7778 23.7506C15.559 23.9695 15.4362 24.2663 15.4363 24.5758C15.4364 24.8853 15.5594 25.1821 15.7783 25.4008L19.5245 29.1423Z"/>
<path d="M34.8333 26.6665C34.5239 26.6665 34.2272 26.7894 34.0084 27.0082C33.7896 27.227 33.6667 27.5237 33.6667 27.8332V32.4998C33.6667 32.8092 33.5438 33.106 33.325 33.3248C33.1062 33.5436 32.8094 33.6665 32.5 33.6665H11.5C11.1906 33.6665 10.8938 33.5436 10.675 33.3248C10.4562 33.106 10.3333 32.8092 10.3333 32.4998V27.8332C10.3333 27.5237 10.2104 27.227 9.99162 27.0082C9.77283 26.7894 9.47609 26.6665 9.16667 26.6665C8.85725 26.6665 8.5605 26.7894 8.34171 27.0082C8.12292 27.227 8 27.5237 8 27.8332V32.4998C8 33.4281 8.36875 34.3183 9.02513 34.9747C9.6815 35.6311 10.5717 35.9998 11.5 35.9998H32.5C33.4283 35.9998 34.3185 35.6311 34.9749 34.9747C35.6313 34.3183 36 33.4281 36 32.4998V27.8332C36 27.5237 35.8771 27.227 35.6583 27.0082C35.4395 26.7894 35.1428 26.6665 34.8333 26.6665Z"/>
</g>
<defs>
<clipPath id="clip0_424_176">
<rect width="28" height="28" fill="white" transform="translate(8 8)"/>
</clipPath>
</defs>
</svg>
