<svg width="11" height="19" viewBox="0 0 11 19" fill="none" xmlns="http://www.w3.org/2000/svg">
<path d="M3.57481 10.4171C3.44593 10.297 3.34364 10.1541 3.27383 9.99674C3.20402 9.83934 3.16809 9.67051 3.16809 9.5C3.16809 9.32948 3.20402 9.16065 3.27383 9.00325C3.34364 8.84585 3.44593 8.70299 3.57481 8.58291L9.88606 2.66708C10.0149 2.547 10.1172 2.40414 10.187 2.24674C10.2568 2.08934 10.2928 1.92051 10.2928 1.75C10.2928 1.57948 10.2568 1.41065 10.187 1.25325C10.1172 1.09585 10.0149 0.95299 9.88606 0.832913C9.62843 0.592339 9.27994 0.457306 8.91668 0.457306C8.55343 0.457306 8.20493 0.592339 7.94731 0.832913L1.63606 6.76166C0.863579 7.48823 0.429688 8.47312 0.429688 9.5C0.429688 10.5269 0.863579 11.5118 1.63606 12.2383L7.94731 18.1671C8.20342 18.4057 8.54909 18.5402 8.90981 18.5417C9.09077 18.5426 9.27015 18.5101 9.43768 18.4458C9.60521 18.3815 9.75758 18.2868 9.88606 18.1671C10.0149 18.047 10.1172 17.9041 10.187 17.7467C10.2568 17.5893 10.2928 17.4205 10.2928 17.25C10.2928 17.0795 10.2568 16.9107 10.187 16.7533C10.1172 16.5958 10.0149 16.453 9.88606 16.3329L3.57481 10.4171Z" fill="url(#paint0_linear_443_97)"/>
<defs>
<linearGradient id="paint0_linear_443_97" x1="0.429687" y1="0.457306" x2="15.6335" y2="8.74934" gradientUnits="userSpaceOnUse">
<stop stop-color="#F6BB0D"/>
<stop offset="1" stop-color="#B5A883"/>
</linearGradient>
</defs>
</svg>
