<svg width="44" height="44" viewBox="0 0 44 44" fill="none" xmlns="http://www.w3.org/2000/svg">
<rect width="44" height="44" rx="12" fill="#343434"/>
<g clip-path="url(#clip0_390_20)">
<path d="M31.3333 15.6667H29.3057C29.9653 15.0852 30.4889 14.3657 30.8393 13.5592C31.1897 12.7527 31.3584 11.879 31.3333 11C31.3333 10.6906 31.2104 10.3938 30.9916 10.175C30.7728 9.95625 30.4761 9.83333 30.1667 9.83333C29.8572 9.83333 29.5605 9.95625 29.3417 10.175C29.1229 10.3938 29 10.6906 29 11C29 14.059 26.2338 15.1183 24.1303 15.4812C24.9067 14.1046 25.3741 12.5754 25.5 11C25.5 10.0717 25.1313 9.1815 24.4749 8.52513C23.8185 7.86875 22.9283 7.5 22 7.5C21.0717 7.5 20.1815 7.86875 19.5251 8.52513C18.8687 9.1815 18.5 10.0717 18.5 11C18.6259 12.5754 19.0933 14.1046 19.8697 15.4812C17.7662 15.1183 15 14.059 15 11C15 10.6906 14.8771 10.3938 14.6583 10.175C14.4395 9.95625 14.1428 9.83333 13.8333 9.83333C13.5239 9.83333 13.2272 9.95625 13.0084 10.175C12.7896 10.3938 12.6667 10.6906 12.6667 11C12.6416 11.879 12.8103 12.7527 13.1607 13.5592C13.5111 14.3657 14.0347 15.0852 14.6943 15.6667H12.6667C11.429 15.6667 10.242 16.1583 9.36684 17.0335C8.49167 17.9087 8 19.0957 8 20.3333L8 21.5C8 22.1188 8.24583 22.7123 8.68342 23.1499C9.121 23.5875 9.71449 23.8333 10.3333 23.8333V29.6667C10.3352 31.2132 10.9504 32.6958 12.0439 33.7894C13.1375 34.883 14.6201 35.4981 16.1667 35.5H27.8333C29.3799 35.4981 30.8625 34.883 31.9561 33.7894C33.0496 32.6958 33.6648 31.2132 33.6667 29.6667V23.8333C34.2855 23.8333 34.879 23.5875 35.3166 23.1499C35.7542 22.7123 36 22.1188 36 21.5V20.3333C36 19.0957 35.5083 17.9087 34.6332 17.0335C33.758 16.1583 32.571 15.6667 31.3333 15.6667ZM22 9.83333C22.3094 9.83333 22.6062 9.95625 22.825 10.175C23.0437 10.3938 23.1667 10.6906 23.1667 11C23.0258 12.24 22.6285 13.4371 22 14.5152C21.3715 13.4371 20.9742 12.24 20.8333 11C20.8333 10.6906 20.9562 10.3938 21.175 10.175C21.3938 9.95625 21.6906 9.83333 22 9.83333V9.83333ZM10.3333 20.3333C10.3333 19.7145 10.5792 19.121 11.0168 18.6834C11.4543 18.2458 12.0478 18 12.6667 18H20.8333V21.5H10.3333V20.3333ZM12.6667 29.6667V23.8333H20.8333V33.1667H16.1667C15.2384 33.1667 14.3482 32.7979 13.6918 32.1415C13.0354 31.4852 12.6667 30.5949 12.6667 29.6667V29.6667ZM31.3333 29.6667C31.3333 30.5949 30.9646 31.4852 30.3082 32.1415C29.6518 32.7979 28.7616 33.1667 27.8333 33.1667H23.1667V23.8333H31.3333V29.6667ZM23.1667 21.5V18H31.3333C31.9522 18 32.5457 18.2458 32.9832 18.6834C33.4208 19.121 33.6667 19.7145 33.6667 20.3333V21.5H23.1667Z"/>
</g>
<defs>
<clipPath id="clip0_390_20">
<rect width="28" height="28" fill="white" transform="translate(8 7.5)"/>
</clipPath>
</defs>
</svg>
