<svg width="44" height="44" viewBox="0 0 44 44" fill="none" xmlns="http://www.w3.org/2000/svg">
<rect width="44" height="44" rx="12" fill="#343434"/>
<g clip-path="url(#clip0_424_172)">
<path d="M22 21.9999C23.3845 21.9999 24.7378 21.5894 25.889 20.8202C27.0401 20.0511 27.9373 18.9578 28.4672 17.6787C28.997 16.3996 29.1356 14.9922 28.8655 13.6343C28.5954 12.2764 27.9287 11.0292 26.9497 10.0502C25.9708 9.07123 24.7235 8.40454 23.3656 8.13445C22.0078 7.86435 20.6003 8.00297 19.3212 8.53279C18.0421 9.0626 16.9489 9.95981 16.1797 11.111C15.4105 12.2621 15 13.6155 15 14.9999C15.0019 16.8559 15.7399 18.6353 17.0523 19.9476C18.3647 21.26 20.1441 21.9981 22 21.9999ZM22 10.3333C22.923 10.3333 23.8252 10.607 24.5927 11.1198C25.3601 11.6325 25.9582 12.3614 26.3114 13.2141C26.6646 14.0668 26.7571 15.0051 26.577 15.9104C26.3969 16.8156 25.9525 17.6471 25.2998 18.2998C24.6472 18.9524 23.8157 19.3969 22.9104 19.5769C22.0052 19.757 21.0669 19.6646 20.2141 19.3114C19.3614 18.9582 18.6326 18.36 18.1198 17.5926C17.607 16.8252 17.3333 15.9229 17.3333 14.9999C17.3333 13.7623 17.825 12.5753 18.7002 11.7001C19.5753 10.8249 20.7623 10.3333 22 10.3333Z"/>
<path d="M22 24.334C19.2162 24.3371 16.5473 25.4444 14.5788 27.4128C12.6103 29.3813 11.5031 32.0502 11.5 34.834C11.5 35.1435 11.6229 35.4402 11.8417 35.659C12.0605 35.8778 12.3572 36.0007 12.6667 36.0007C12.9761 36.0007 13.2728 35.8778 13.4916 35.659C13.7104 35.4402 13.8333 35.1435 13.8333 34.834C13.8333 32.6681 14.6937 30.5909 16.2253 29.0593C17.7568 27.5278 19.8341 26.6674 22 26.6674C24.1659 26.6674 26.2432 27.5278 27.7747 29.0593C29.3063 30.5909 30.1667 32.6681 30.1667 34.834C30.1667 35.1435 30.2896 35.4402 30.5084 35.659C30.7272 35.8778 31.0239 36.0007 31.3333 36.0007C31.6428 36.0007 31.9395 35.8778 32.1583 35.659C32.3771 35.4402 32.5 35.1435 32.5 34.834C32.4969 32.0502 31.3897 29.3813 29.4212 27.4128C27.4527 25.4444 24.7838 24.3371 22 24.334Z"/>
</g>
<defs>
<clipPath id="clip0_424_172">
<rect width="28" height="28" fill="white" transform="translate(8 8)"/>
</clipPath>
</defs>
</svg>
