<svg width="44" height="44" viewBox="0 0 44 44" fill="none" xmlns="http://www.w3.org/2000/svg">
<rect width="44" height="44" rx="12" fill="#343434"/>
<g clip-path="url(#clip0_360_182)">
<path d="M22.0003 9.8333C23.5479 9.83837 25.0791 10.1503 26.5053 10.7511C27.9315 11.3519 29.2245 12.2295 30.3093 13.3333H26.6669C26.3575 13.3333 26.0608 13.4562 25.842 13.675C25.6232 13.8938 25.5003 14.1905 25.5003 14.5C25.5003 14.8094 25.6232 15.1061 25.842 15.3249C26.0608 15.5437 26.3575 15.6666 26.6669 15.6666H31.5004C32.0749 15.6663 32.6258 15.438 33.032 15.0317C33.4383 14.6255 33.6666 14.0746 33.6669 13.5001V8.66663C33.6669 8.35721 33.544 8.06046 33.3252 7.84167C33.1064 7.62288 32.8097 7.49996 32.5003 7.49996C32.1908 7.49996 31.8941 7.62288 31.6753 7.84167C31.4565 8.06046 31.3336 8.35721 31.3336 8.66663V11.091C29.4053 9.35433 27.0316 8.18877 24.4784 7.72484C21.9251 7.2609 19.2932 7.51689 16.8772 8.46415C14.4612 9.41141 12.3566 11.0125 10.7991 13.0882C9.2416 15.1639 8.29268 17.6322 8.0586 20.2166C8.04353 20.3791 8.06246 20.5429 8.1142 20.6977C8.16594 20.8524 8.24934 20.9947 8.3591 21.1154C8.46886 21.2361 8.60256 21.3327 8.75169 21.3989C8.90081 21.4651 9.0621 21.4995 9.22526 21.5C9.51061 21.5036 9.78705 21.4006 10.0005 21.2112C10.2139 21.0217 10.3489 20.7594 10.3791 20.4756C10.6388 17.5715 11.9751 14.8694 14.1254 12.9003C16.2756 10.9311 19.0845 9.83714 22.0003 9.8333Z"/>
<path d="M34.7763 21.5003C34.491 21.4966 34.2145 21.5996 34.0011 21.7891C33.7877 21.9785 33.6527 22.2408 33.6225 22.5246C33.4296 24.7451 32.6039 26.8636 31.2433 28.6289C29.8826 30.3941 28.0442 31.7321 25.946 32.4839C23.8478 33.2358 21.5781 33.3701 19.4059 32.8707C17.2338 32.3714 15.2504 31.2595 13.6912 29.667H17.3335C17.6429 29.667 17.9397 29.544 18.1585 29.3252C18.3772 29.1065 18.5002 28.8097 18.5002 28.5003C18.5002 28.1909 18.3772 27.8941 18.1585 27.6753C17.9397 27.4565 17.6429 27.3336 17.3335 27.3336H12.5C12.2154 27.3335 11.9337 27.3894 11.6707 27.4982C11.4078 27.607 11.1689 27.7666 10.9677 27.9678C10.7665 28.169 10.6069 28.4079 10.4981 28.6709C10.3893 28.9338 10.3333 29.2156 10.3335 29.5001V34.3336C10.3335 34.6431 10.4564 34.9398 10.6752 35.1586C10.894 35.3774 11.1907 35.5003 11.5002 35.5003C11.8096 35.5003 12.1063 35.3774 12.3251 35.1586C12.5439 34.9398 12.6668 34.6431 12.6668 34.3336V31.9093C14.5951 33.6459 16.9688 34.8115 19.522 35.2754C22.0753 35.7394 24.7073 35.4834 27.1232 34.5361C29.5392 33.5889 31.6438 31.9877 33.2013 29.912C34.7588 27.8364 35.7078 25.3681 35.9418 22.7836C35.9569 22.6211 35.938 22.4573 35.8862 22.3026C35.8345 22.1478 35.7511 22.0056 35.6413 21.8848C35.5316 21.7641 35.3979 21.6675 35.2487 21.6013C35.0996 21.5351 34.9383 21.5007 34.7752 21.5003H34.7763Z"/>
</g>
<defs>
<clipPath id="clip0_360_182">
<rect width="28" height="28" fill="white" transform="translate(8 7.5)"/>
</clipPath>
</defs>
</svg>
