<svg width="44" height="44" viewBox="0 0 44 44" xmlns="http://www.w3.org/2000/svg">
<rect width="44" height="44" rx="12" fill="#343434"/>
<g clip-path="url(#clip0_360_205)">
<path d="M18.4592 35.5H12.6667C11.429 35.5 10.242 35.0083 9.36684 34.1332C8.49167 33.258 8 32.071 8 30.8333V25C8 23.7623 8.49167 22.5753 9.36684 21.7002C10.242 20.825 11.429 20.3333 12.6667 20.3333H22.9998C23.6312 20.3336 24.2519 20.4969 24.8017 20.8074C25.3515 21.1178 25.8118 21.565 26.1382 22.1055L29.8913 17.9813C30.2018 17.64 30.5765 17.3631 30.9939 17.1666C31.4114 16.9701 31.8636 16.8578 32.3245 16.8361C32.7854 16.8145 33.2461 16.8839 33.6802 17.0403C34.1142 17.1968 34.5132 17.4373 34.8543 17.748C35.5349 18.3732 35.9428 19.2407 35.9902 20.1637C36.0375 21.0867 35.7205 21.9914 35.1075 22.683L27.1742 31.5928C26.0788 32.8214 24.7362 33.8045 23.2343 34.4778C21.7324 35.1512 20.1051 35.4995 18.4592 35.5ZM12.6667 22.6667C12.0478 22.6667 11.4543 22.9125 11.0168 23.3501C10.5792 23.7877 10.3333 24.3812 10.3333 25V30.8333C10.3333 31.4522 10.5792 32.0457 11.0168 32.4832C11.4543 32.9208 12.0478 33.1667 12.6667 33.1667H18.4592C19.7751 33.1661 21.076 32.8875 22.2767 32.3491C23.4774 31.8107 24.5508 31.0246 25.4265 30.0423L33.3657 21.1313C33.5718 20.8992 33.6785 20.5953 33.6628 20.2852C33.6471 19.9752 33.5102 19.6837 33.2817 19.4735C33.0493 19.2646 32.7446 19.1545 32.4323 19.1667C32.2775 19.1732 32.1256 19.2105 31.9854 19.2764C31.8452 19.3423 31.7195 19.4355 31.6157 19.5505L26.452 25.2333C26.2253 25.8607 25.8325 26.4148 25.3155 26.8364C24.7986 27.2581 24.1768 27.5314 23.5167 27.6273L17.4955 28.4883C17.1892 28.5323 16.8779 28.4527 16.6303 28.2672C16.3826 28.0816 16.2188 27.8053 16.1748 27.499C16.1309 27.1927 16.2104 26.8814 16.396 26.6338C16.5815 26.3861 16.8578 26.2223 17.1642 26.1783L23.1865 25.3185C23.5208 25.2718 23.8249 25.0999 24.0373 24.8376C24.2498 24.5753 24.3548 24.2422 24.3311 23.9054C24.3074 23.5687 24.1568 23.2536 23.9097 23.0236C23.6625 22.7937 23.3374 22.6661 22.9998 22.6667H12.6667ZM20.8333 18.0863C20.3046 18.0878 19.7912 17.9083 19.3785 17.5777C17.3812 15.9747 15 13.5667 15 11.2333C14.9714 10.2748 15.3235 9.34385 15.9794 8.64422C16.6353 7.9446 17.5416 7.53319 18.5 7.5C19.3719 7.5034 20.2084 7.84512 20.8333 8.45317C21.4582 7.84512 22.2948 7.5034 23.1667 7.5C24.1251 7.53319 25.0314 7.9446 25.6873 8.64422C26.3432 9.34385 26.6953 10.2748 26.6667 11.2333C26.6667 13.5667 24.2855 15.9747 22.287 17.5788C21.8745 17.9088 21.3616 18.0878 20.8333 18.0863ZM18.5 9.83333C18.1609 9.86736 17.8487 10.0331 17.6305 10.2949C17.4124 10.5567 17.3057 10.8937 17.3333 11.2333C17.3333 12.2833 18.6762 14.0217 20.8403 15.7588C22.9905 14.0217 24.3333 12.2833 24.3333 11.2333C24.361 10.8937 24.2543 10.5567 24.0361 10.2949C23.818 10.0331 23.5058 9.86736 23.1667 9.83333C22.8276 9.86736 22.5154 10.0331 22.2972 10.2949C22.079 10.5567 21.9723 10.8937 22 11.2333C22 11.5428 21.8771 11.8395 21.6583 12.0583C21.4395 12.2771 21.1428 12.4 20.8333 12.4C20.5239 12.4 20.2272 12.2771 20.0084 12.0583C19.7896 11.8395 19.6667 11.5428 19.6667 11.2333C19.6944 10.8937 19.5876 10.5567 19.3695 10.2949C19.1513 10.0331 18.8391 9.86736 18.5 9.83333Z"/>
</g>
<defs>
<clipPath id="clip0_360_205">
<rect width="28" height="28" fill="white" transform="translate(8 7.5)"/>
</clipPath>
</defs>
</svg>
