<svg width="10" height="19" viewBox="0 0 10 19" fill="none" xmlns="http://www.w3.org/2000/svg">
<path d="M3.13331 10.4467C3.00834 10.3228 2.90915 10.1753 2.84145 10.0128C2.77376 9.85033 2.73891 9.67606 2.73891 9.50004C2.73891 9.32402 2.77376 9.14975 2.84145 8.98727C2.90915 8.82479 3.00834 8.67732 3.13331 8.55337L9.25331 2.44671C9.37828 2.32276 9.47748 2.17529 9.54517 2.01281C9.61286 1.85033 9.64771 1.67606 9.64771 1.50004C9.64771 1.32402 9.61286 1.14975 9.54517 0.98727C9.47748 0.824791 9.37828 0.677323 9.25331 0.553373C9.00349 0.305038 8.66556 0.165649 8.31331 0.165649C7.96106 0.165649 7.62313 0.305038 7.37331 0.553373L1.25331 6.67337C0.50424 7.42338 0.0834961 8.44004 0.0834961 9.50004C0.0834961 10.56 0.50424 11.5767 1.25331 12.3267L7.37331 18.4467C7.62166 18.693 7.95686 18.8319 8.30664 18.8334C8.48212 18.8344 8.65607 18.8008 8.81852 18.7344C8.98097 18.668 9.12872 18.5703 9.25331 18.4467C9.37828 18.3228 9.47748 18.1753 9.54517 18.0128C9.61286 17.8503 9.64771 17.6761 9.64771 17.5C9.64771 17.324 9.61286 17.1497 9.54517 16.9873C9.47748 16.8248 9.37828 16.6773 9.25331 16.5534L3.13331 10.4467Z" fill="#E4E4F0"/>
</svg>
