<svg width="44" height="45" viewBox="0 0 44 45" fill="none" xmlns="http://www.w3.org/2000/svg">
<rect y="0.5" width="44" height="44" rx="12" fill="#343434"/>
<g clip-path="url(#clip0_360_178)">
<path d="M14.4167 28.3335C15.3832 28.3335 16.1667 27.55 16.1667 26.5835C16.1667 25.617 15.3832 24.8335 14.4167 24.8335C13.4502 24.8335 12.6667 25.617 12.6667 26.5835C12.6667 27.55 13.4502 28.3335 14.4167 28.3335Z"/>
<path d="M30.1667 12H13.8333C12.2868 12.0018 10.8041 12.617 9.71057 13.7106C8.61701 14.8041 8.00184 16.2868 7.99998 17.8333L7.99998 27.1667C8.00184 28.7132 8.61701 30.1958 9.71057 31.2894C10.8041 32.383 12.2868 32.9981 13.8333 33H30.1667C31.7132 32.9981 33.1958 32.383 34.2894 31.2894C35.383 30.1958 35.9981 28.7132 36 27.1667V17.8333C35.9981 16.2868 35.383 14.8041 34.2894 13.7106C33.1958 12.617 31.7132 12.0018 30.1667 12ZM13.8333 14.3333H30.1667C31.0949 14.3333 31.9851 14.7021 32.6415 15.3584C33.2979 16.0148 33.6667 16.9051 33.6667 17.8333H10.3333C10.3333 16.9051 10.7021 16.0148 11.3584 15.3584C12.0148 14.7021 12.9051 14.3333 13.8333 14.3333ZM30.1667 30.6667H13.8333C12.9051 30.6667 12.0148 30.2979 11.3584 29.6415C10.7021 28.9851 10.3333 28.0949 10.3333 27.1667V20.1667H33.6667V27.1667C33.6667 28.0949 33.2979 28.9851 32.6415 29.6415C31.9851 30.2979 31.0949 30.6667 30.1667 30.6667Z"/>
</g>
<defs>
<clipPath id="clip0_360_178">
<rect width="28" height="28" fill="white" transform="translate(8 8.5)"/>
</clipPath>
</defs>
</svg>
