<svg width="44" height="44" viewBox="0 0 44 44" fill="none" xmlns="http://www.w3.org/2000/svg">
<rect width="44" height="44" rx="12" fill="#343434"/>
<g clip-path="url(#clip0_360_174)">
<path d="M23.2542 12.1667C24.2032 12.1676 25.1131 12.545 25.7841 13.216C26.4552 13.8871 26.8326 14.797 26.8335 15.746C26.8335 16.0554 26.9564 16.3521 27.1752 16.5709C27.394 16.7897 27.6908 16.9127 28.0002 16.9127C28.3096 16.9127 28.6063 16.7897 28.8251 16.5709C29.0439 16.3521 29.1668 16.0554 29.1668 15.746V15.6667C29.1668 15.6445 29.1668 15.6247 29.1668 15.6025C29.1279 14.0598 28.488 12.5934 27.3835 11.5157C26.279 10.438 24.7973 9.83435 23.2542 9.83332H22.1668V8.66665C22.1668 8.35723 22.0439 8.06049 21.8251 7.84169C21.6063 7.6229 21.3096 7.49998 21.0002 7.49998C20.6908 7.49998 20.394 7.6229 20.1752 7.84169C19.9564 8.06049 19.8335 8.35723 19.8335 8.66665V9.83332H18.7462C17.343 9.83482 15.9862 10.3353 14.9181 11.2452C13.85 12.1551 13.1404 13.4152 12.9159 14.8003C12.6915 16.1854 12.967 17.6051 13.6931 18.8058C14.4192 20.0064 15.5486 20.9097 16.8795 21.3542L19.8335 22.34V30.8333H18.7462C17.7972 30.8324 16.8873 30.455 16.2162 29.7839C15.5452 29.1129 15.1678 28.203 15.1668 27.254C15.1668 26.9446 15.0439 26.6478 14.8251 26.429C14.6063 26.2102 14.3096 26.0873 14.0002 26.0873C13.6908 26.0873 13.394 26.2102 13.1752 26.429C12.9564 26.6478 12.8335 26.9446 12.8335 27.254V27.3333C12.8335 27.3555 12.8335 27.3753 12.8335 27.3975C12.8724 28.9401 13.5124 30.4066 14.6168 31.4843C15.7213 32.5619 17.203 33.1656 18.7462 33.1667H19.8335V34.3333C19.8335 34.6427 19.9564 34.9395 20.1752 35.1583C20.394 35.3771 20.6908 35.5 21.0002 35.5C21.3096 35.5 21.6063 35.3771 21.8251 35.1583C22.0439 34.9395 22.1668 34.6427 22.1668 34.3333V33.1667H23.2542C24.6573 33.1652 26.0142 32.6647 27.0823 31.7548C28.1503 30.8448 28.86 29.5847 29.0844 28.1997C29.3088 26.8146 29.0334 25.3949 28.3073 24.1942C27.5811 22.9936 26.4517 22.0903 25.1208 21.6458L22.1668 20.66V12.1667H23.2542ZM24.3858 23.8578C25.1925 24.1263 25.8773 24.6731 26.3175 25.4004C26.7578 26.1277 26.9248 26.988 26.7886 27.8272C26.6525 28.6664 26.2221 29.4297 25.5745 29.9805C24.9269 30.5313 24.1043 30.8336 23.2542 30.8333H22.1668V23.1182L24.3858 23.8578ZM19.8335 19.8818L17.6168 19.1422C16.8104 18.8737 16.1257 18.3271 15.6855 17.6C15.2452 16.873 15.078 16.013 15.2139 15.1739C15.3497 14.3349 15.7797 13.5716 16.4269 13.0206C17.0741 12.4696 17.8962 12.1669 18.7462 12.1667H19.8335V19.8818Z"/>
</g>
<defs>
<clipPath id="clip0_360_174">
<rect width="28" height="28" fill="white" transform="translate(7 7.5)"/>
</clipPath>
</defs>
</svg>
