<svg width="44" height="44" viewBox="0 0 44 44" fill="none" xmlns="http://www.w3.org/2000/svg">
<rect width="44" height="44" rx="12" fill="#343434"/>
<g clip-path="url(#clip0_360_213)">
<path d="M22 8.5C19.2311 8.5 16.5243 9.32109 14.222 10.8594C11.9197 12.3978 10.1253 14.5843 9.06569 17.1424C8.00607 19.7006 7.72882 22.5155 8.26901 25.2313C8.80921 27.947 10.1426 30.4416 12.1005 32.3995C14.0584 34.3574 16.553 35.6908 19.2687 36.231C21.9845 36.7712 24.7994 36.4939 27.3576 35.4343C29.9157 34.3747 32.1022 32.5803 33.6406 30.278C35.1789 27.9757 36 25.2689 36 22.5C35.996 18.7882 34.5197 15.2296 31.8951 12.6049C29.2704 9.9803 25.7118 8.50401 22 8.5V8.5ZM22 34.1667C19.6926 34.1667 17.4369 33.4824 15.5184 32.2005C13.5998 30.9185 12.1044 29.0964 11.2214 26.9646C10.3384 24.8328 10.1074 22.4871 10.5575 20.2239C11.0077 17.9608 12.1188 15.882 13.7504 14.2504C15.382 12.6188 17.4608 11.5077 19.724 11.0575C21.9871 10.6073 24.3328 10.8384 26.4646 11.7214C28.5965 12.6044 30.4185 14.0998 31.7005 16.0183C32.9824 17.9369 33.6667 20.1926 33.6667 22.5C33.6633 25.5932 32.433 28.5586 30.2458 30.7458C28.0586 32.933 25.0932 34.1633 22 34.1667Z"/>
<path d="M21.9998 15.5C21.6904 15.5 21.3936 15.6229 21.1749 15.8417C20.9561 16.0605 20.8331 16.3572 20.8331 16.6667V21.7125L16.9003 24.1765C16.6373 24.3408 16.4503 24.6028 16.3805 24.905C16.3107 25.2071 16.3638 25.5246 16.5281 25.7877C16.6924 26.0507 16.9545 26.2376 17.2566 26.3074C17.5588 26.3772 17.8763 26.3241 18.1393 26.1598L22.6193 23.3598C22.7886 23.2538 22.9278 23.106 23.0236 22.9308C23.1194 22.7555 23.1686 22.5586 23.1665 22.3588V16.6667C23.1665 16.3572 23.0436 16.0605 22.8248 15.8417C22.606 15.6229 22.3092 15.5 21.9998 15.5Z"/>
</g>
<defs>
<clipPath id="clip0_360_213">
<rect width="28" height="28" fill="white" transform="translate(8 8.5)"/>
</clipPath>
</defs>
</svg>
